<svg width="400" height="207" viewBox="0 0 400 207" fill="none" xmlns="http://www.w3.org/2000/svg">
<path d="M375.926 98.0625V102H374.92V93.2727H375.926V96.4773H376.011C376.165 96.1392 376.395 95.8707 376.702 95.6719C377.011 95.4702 377.423 95.3693 377.938 95.3693C378.384 95.3693 378.774 95.4588 379.109 95.6378C379.445 95.8139 379.705 96.0852 379.889 96.4517C380.077 96.8153 380.17 97.2784 380.17 97.8409V102H379.165V97.9091C379.165 97.3892 379.03 96.9872 378.76 96.7031C378.493 96.4162 378.122 96.2727 377.648 96.2727C377.318 96.2727 377.023 96.3423 376.761 96.4815C376.503 96.6207 376.298 96.8239 376.148 97.0909C376 97.358 375.926 97.6818 375.926 98.0625Z" fill="#EC1C1C"/>
<path d="M42.6648 70.1364C42.0341 70.1364 41.4901 69.9972 41.0327 69.7188C40.5781 69.4375 40.2273 69.0455 39.9801 68.5426C39.7358 68.0369 39.6136 67.4489 39.6136 66.7784C39.6136 66.108 39.7358 65.517 39.9801 65.0057C40.2273 64.4915 40.571 64.0909 41.0114 63.804C41.4545 63.5142 41.9716 63.3693 42.5625 63.3693C42.9034 63.3693 43.2401 63.4261 43.5724 63.5398C43.9048 63.6534 44.2074 63.8381 44.4801 64.0938C44.7528 64.3466 44.9702 64.6818 45.1321 65.0994C45.294 65.517 45.375 66.0312 45.375 66.642V67.0682H40.3295V66.1989H44.3523C44.3523 65.8295 44.2784 65.5 44.1307 65.2102C43.9858 64.9205 43.7784 64.6918 43.5085 64.5241C43.2415 64.3565 42.9261 64.2727 42.5625 64.2727C42.1619 64.2727 41.8153 64.3722 41.5227 64.571C41.233 64.767 41.0099 65.0227 40.8537 65.3381C40.6974 65.6534 40.6193 65.9915 40.6193 66.3523V66.9318C40.6193 67.4261 40.7045 67.8452 40.875 68.1889C41.0483 68.5298 41.2884 68.7898 41.5952 68.9688C41.902 69.1449 42.2585 69.233 42.6648 69.233C42.929 69.233 43.1676 69.196 43.3807 69.1222C43.5966 69.0455 43.7827 68.9318 43.9389 68.7812C44.0952 68.6278 44.2159 68.4375 44.3011 68.2102L45.2727 68.483C45.1705 68.8125 44.9986 69.1023 44.7571 69.3523C44.5156 69.5994 44.2173 69.7926 43.8622 69.9318C43.5071 70.0682 43.108 70.1364 42.6648 70.1364Z" fill="#EC1C1C"/>
<path d="M103.437 187.894L105.572 179.432L108.531 180.178C109.12 180.327 109.581 180.552 109.912 180.852C110.244 181.15 110.461 181.493 110.562 181.882C110.664 182.268 110.663 182.668 110.558 183.081C110.467 183.444 110.326 183.728 110.137 183.933C109.95 184.137 109.735 184.282 109.491 184.367C109.25 184.453 108.999 184.498 108.74 184.503L108.72 184.586C108.974 184.668 109.212 184.824 109.432 185.055C109.652 185.287 109.811 185.579 109.909 185.932C110.008 186.285 110.001 186.685 109.888 187.131C109.781 187.555 109.588 187.912 109.31 188.202C109.032 188.492 108.66 188.684 108.194 188.778C107.728 188.871 107.161 188.834 106.495 188.665L103.437 187.894ZM104.691 187.243L106.724 187.756C107.393 187.925 107.901 187.916 108.248 187.728C108.597 187.538 108.819 187.257 108.913 186.885C108.985 186.598 108.979 186.315 108.894 186.036C108.81 185.754 108.651 185.506 108.418 185.292C108.186 185.075 107.885 184.92 107.516 184.827L105.434 184.302L104.691 187.243ZM105.659 183.409L107.559 183.889C107.868 183.966 108.161 183.976 108.44 183.917C108.721 183.859 108.963 183.739 109.164 183.555C109.369 183.372 109.508 183.132 109.583 182.835C109.677 182.463 109.627 182.115 109.434 181.791C109.241 181.463 108.863 181.229 108.301 181.087L106.368 180.599L105.659 183.409Z" fill="#EC1C1C"/>
<path d="M294.333 176.842L293.289 177.211L293.401 167.915L294.43 167.551L300.36 174.712L299.315 175.081L294.408 169.023L294.344 169.046L294.333 176.842ZM293.583 173.491L297.793 172.003L298.106 172.887L293.895 174.375L293.583 173.491Z" fill="#EC1C1C"/>
<path d="M352.766 137.558L369.766 128.558" stroke="black"/>
<path d="M352.776 75.6026L368.876 67.5528" stroke="black"/>
<path d="M365.5 63.9932L366.486 135.986" stroke="black"/>
<path d="M361.257 66.5713L369.832 71.7162" stroke="black"/>
<path d="M361.257 127.571L370.69 133.231" stroke="black"/>
<path d="M42.8419 149.526L57.8419 144.526" stroke="black"/>
<path d="M197.842 194.902L213.969 189.526" stroke="black"/>
<path d="M197.842 130.902L213.969 125.526" stroke="black"/>
<path d="M44.8205 86.5333L57.8205 81.5333" stroke="black"/>
<path d="M60.1374 144.519L214.137 188.519" stroke="black"/>
<path d="M43.1402 149.52L197.14 194.52" stroke="black"/>
<path d="M44.1411 86.5203L197.141 131.52" stroke="black"/>
<path d="M44.5 149.5V86.5L59.5 81L214 125.5V189L198 194.5L44.5 149.5Z" fill="#EFBCBC" fill-opacity="0.39"/>
<path d="M44.5 86.5V149.5M44.5 86.5L59.5 81M44.5 86.5L198 131M44.5 149.5L59.5 144.5M44.5 149.5L198 194.5M59.5 81V144.5M59.5 81L214 125.5M198 131L214 125.5M198 131V194.5M59.5 144.5L214 189M198 194.5L214 189M214 189V125.5" stroke="black"/>
<path d="M35.5217 163.456L100.924 182.1" stroke="black"/>
<path d="M117.141 186.52L182.375 205.743" stroke="black"/>
<path d="M37.3536 78.6464L45.1317 86.4246" stroke="black"/>
<path d="M50.3536 71.6464L59.3536 80.6464" stroke="black"/>
<path d="M36.8271 80.5308L55.8271 73.5308" stroke="black"/>
<path d="M39.4903 77.0981L38.4903 82.0981" stroke="black"/>
<path d="M53.4903 72.0981L52.4903 77.0981" stroke="black"/>
<path d="M217.813 202.536L284.813 175.536" stroke="black"/>
<path d="M303.813 167.536L360.813 144.536" stroke="black"/>
<path d="M351.5 76L196.5 31L60 81L214.5 126L351.5 76ZM351.5 76V137.5M351.5 137.5L214.5 188.5L58.5 143L71.5 138.5M351.5 137.5L341 135M113 123.5L126.5 119M76 136.5L89.5 132M94.5 130.5L108 126M130.5 117L144 112.5M149 110L162.5 105.5M207 96L196.5 93.5L185 97.5M167 103.5L180.5 99M232.5 103.5L243 106M214 98.5L224.5 101M288 119L298.5 121.5M251.5 109L262 111.5M269.5 113.5L280 116M324.5 130L335 132.5M307 125L317.5 127.5M58.5 78V61.5M58.5 61.5L196.5 11.5M58.5 61.5V56M58.5 61.5L51.5 63.5M196.5 11.5L351.5 55.5M196.5 11.5L188.5 9M196.5 11.5V6.5M196.5 11.5L204 9M351.5 55.5V71M351.5 55.5V50M351.5 55.5L358.5 57.5M201 5.5L192.5 16M197 14V27M197 48.5V61.5M197 31.1452V44.1452M197 64.5V77.5M197 80.619V93.619M54.5 65.5L63 56M347.5 60.5L356.5 50" stroke="black"/>
</svg>
