 <svg class="activ" width="351" height="185" viewBox="0 0 351 185" fill="none" xmlns="http://www.w3.org/2000/svg">
            <line x1="325.5" y1="71.5" x2="342.5" y2="71.5" stroke="black" />
            <line x1="325.5" y1="133.5" x2="342.5" y2="133.5" stroke="black" />
            <line x1="338" y1="67.9929" x2="339" y2="137.993" stroke="black" />
            <line x1="341.8" y1="68.4" x2="333.8" y2="74.4" stroke="black" />
            <line x1="342.8" y1="131.4" x2="334.8" y2="137.4" stroke="black" />             
            <path id="fund"
                d="M326.5 71.5L171.5 26.5L35 76.5L189.5 121.5L326.5 71.5ZM326.5 71.5V133M326.5 133L189.5 184L33.5 138.5L46.5 134M326.5 133L316 130.5M88 119L101.5 114.5M51 132L64.5 127.5M69.5 126L83 121.5M105.5 112.5L119 108M124 105.5L137.5 101M182 91.5L171.5 89L160 93M142 99L155.5 94.5M207.5 99L218 101.5M189 94L199.5 96.5M263 114.5L273.5 117M226.5 104.5L237 107M244.5 109L255 111.5M299.5 125.5L310 128M282 120.5L292.5 123M33.5 73.5V57M33.5 57L171.5 7M33.5 57V51.5M33.5 57L26.5 59M171.5 7L326.5 51M171.5 7L163.5 4.5M171.5 7V2M171.5 7L179 4.5M326.5 51V66.5M326.5 51V45.5M326.5 51L333.5 53M176 1L167.5 11.5M172 9.5V22.5M172 44V57M172 26.6452V39.6452M172 60V73M172 76.119V89.119M29.5 61L38 51.5M322.5 56L331.5 45.5"
                stroke="black" />
            <path id="B"
                d="M106.324 25.8485L103.197 17.7008L106.046 16.6068C106.613 16.3895 107.12 16.308 107.563 16.3627C108.006 16.4151 108.381 16.5706 108.688 16.8305C108.993 17.0873 109.223 17.4149 109.375 17.813C109.509 18.1622 109.558 18.4756 109.521 18.752C109.486 19.0265 109.393 19.2688 109.243 19.4788C109.095 19.6879 108.916 19.8692 108.707 20.0225L108.739 20.1018C108.994 20.0226 109.278 20.0131 109.591 20.0753C109.904 20.1383 110.202 20.2854 110.486 20.5176C110.77 20.7492 110.995 21.0803 111.159 21.51C111.316 21.9182 111.364 22.3212 111.303 22.7184C111.243 23.1156 111.049 23.4868 110.723 23.832C110.395 24.1763 109.91 24.4726 109.268 24.7179L106.324 25.8485ZM106.975 24.5941L108.932 23.8429C109.576 23.5958 109.987 23.2959 110.162 22.9424C110.338 22.5861 110.358 22.2285 110.22 21.8703C110.114 21.5942 109.946 21.3663 109.716 21.1871C109.485 21.0049 109.212 20.8937 108.898 20.8529C108.584 20.8091 108.248 20.8557 107.893 20.9922L105.889 21.7618L106.975 24.5941ZM105.558 20.9022L107.388 20.2005C107.685 20.0856 107.93 19.925 108.125 19.7161C108.321 19.5069 108.45 19.2694 108.508 19.0032C108.57 18.7356 108.546 18.4593 108.436 18.1733C108.299 17.8151 108.057 17.5594 107.713 17.4056C107.366 17.2486 106.922 17.2749 106.381 17.4825L104.52 18.1966L105.558 20.9022Z"
                fill="#EC1C1C" />
                <text style="font-weight: bold" x="40" y="140" fill="#EC1C1C" transform="
                rotate(-20 50 100)                 
                skewX(40)
                scale(1 0.7)">20 м</text>  
            <path id="A"
                d="M263.446 22.0761L262.378 21.7844L267.767 14.2092L268.82 14.4964L269.612 23.7602L268.544 23.4679L267.963 15.6935L267.898 15.676L263.446 22.0761ZM264.739 18.895L269.047 20.0713L268.8 20.9761L264.492 19.7992L264.739 18.895Z"
                fill="#EC1C1C" />
                <text style="font-weight: bold;" x="210" y="10" fill="#EC1C1C" transform="
                rotate(19 50 100)                  
                skewX(-40)
                scale(1.1 0.7)">10 м</text>
        
            <path d="M35.5 76.5L189.5 121.5V183.5L33.5 138.5L1.5 92L35.5 76.5Z" fill="#D9D9D9" fill-opacity="0.47" />
            <path
                d="M189.5 121.5L35.5 76.5L1.5 92M189.5 121.5V183.5M189.5 121.5L157.5 136.5M189.5 183.5L33.5 138.5L1.5 92M189.5 183.5L157.5 136.5M1.5 92L157.5 136.5"
                stroke="black" />
            <path id="e"
                d="M198.051 139.767C197.42 139.767 196.876 139.628 196.419 139.35C195.964 139.068 195.614 138.676 195.366 138.173C195.122 137.668 195 137.08 195 136.409C195 135.739 195.122 135.148 195.366 134.636C195.614 134.122 195.957 133.722 196.398 133.435C196.841 133.145 197.358 133 197.949 133C198.29 133 198.626 133.057 198.959 133.17C199.291 133.284 199.594 133.469 199.866 133.725C200.139 133.977 200.357 134.313 200.518 134.73C200.68 135.148 200.761 135.662 200.761 136.273V136.699H195.716V135.83H199.739C199.739 135.46 199.665 135.131 199.517 134.841C199.372 134.551 199.165 134.323 198.895 134.155C198.628 133.987 198.312 133.903 197.949 133.903C197.548 133.903 197.202 134.003 196.909 134.202C196.619 134.398 196.396 134.653 196.24 134.969C196.084 135.284 196.006 135.622 196.006 135.983V136.562C196.006 137.057 196.091 137.476 196.261 137.82C196.435 138.161 196.675 138.421 196.982 138.6C197.288 138.776 197.645 138.864 198.051 138.864C198.315 138.864 198.554 138.827 198.767 138.753C198.983 138.676 199.169 138.562 199.325 138.412C199.482 138.258 199.602 138.068 199.688 137.841L200.659 138.114C200.557 138.443 200.385 138.733 200.143 138.983C199.902 139.23 199.604 139.423 199.249 139.562C198.894 139.699 198.494 139.767 198.051 139.767Z"
                fill="#EC1C1C" />
                <text style="font-weight: bold" x="115" y="280" fill="#EC1C1C" transform="
                rotate(-20 50 100)                 
                skewX(10)
                scale(1.1 0.7)">0.6м</text>
            <path id="h"
                d="M346.506 98.7898V102.727H345.5V94H346.506V97.2046H346.591C346.745 96.8665 346.975 96.598 347.282 96.3992C347.591 96.1975 348.003 96.0966 348.518 96.0966C348.964 96.0966 349.354 96.1861 349.689 96.3651C350.025 96.5412 350.285 96.8125 350.469 97.179C350.657 97.5426 350.75 98.0057 350.75 98.5682V102.727H349.745V98.6364C349.745 98.1165 349.61 97.7145 349.34 97.4304C349.073 97.1435 348.702 97 348.228 97C347.898 97 347.603 97.0696 347.341 97.2088C347.083 97.348 346.878 97.5512 346.728 97.8182C346.58 98.0853 346.506 98.4091 346.506 98.7898Z"
                fill="#EC1C1C" />
                <text style="font-weight: bold; font-size: 14px" x="290" y="140" fill="#EC1C1C" 
                height="10" transform="skewY(-6)">0.1 м</text>                   
            
            <line x1="206.474" y1="123.158" x2="204.474" y2="129.158" stroke="black" />
            <line x1="189.111" y1="121.512" x2="211.111" y2="126.512" stroke="black" />
            <line x1="157.413" y1="136.719" x2="189.413" y2="183.719" stroke="black" />
            <line x1="173.474" y1="137.158" x2="171.474" y2="143.158" stroke="black" />
            <line x1="158.116" y1="136.514" x2="179.116" y2="141.514" stroke="black" />
            <line x1="164.796" y1="143.72" x2="212.257" y2="122.543" stroke="black" />
        </svg>