  <svg width="335" height="192" viewBox="0 0 335 192" fill="none" xmlns="http://www.w3.org/2000/svg">
            <path
                d="M330.506 98.7898V102.727H329.5V94H330.506V97.2046H330.591C330.745 96.8665 330.975 96.598 331.282 96.3992C331.591 96.1975 332.003 96.0966 332.518 96.0966C332.964 96.0966 333.354 96.1861 333.689 96.3651C334.025 96.5412 334.285 96.8125 334.469 97.179C334.657 97.5426 334.75 98.0057 334.75 98.5682V102.727H333.745V98.6364C333.745 98.1165 333.61 97.7145 333.34 97.4304C333.073 97.1435 332.702 97 332.228 97C331.898 97 331.603 97.0696 331.341 97.2088C331.083 97.348 330.878 97.5512 330.728 97.8182C330.58 98.0853 330.506 98.4091 330.506 98.7898Z"
                fill="#EC1C1C" />
            <path
                d="M161.551 104.767C160.92 104.767 160.376 104.628 159.919 104.35C159.464 104.068 159.114 103.676 158.866 103.173C158.622 102.668 158.5 102.08 158.5 101.409C158.5 100.739 158.622 100.148 158.866 99.6364C159.114 99.1222 159.457 98.7216 159.898 98.4347C160.341 98.1449 160.858 98 161.449 98C161.79 98 162.126 98.0568 162.459 98.1705C162.791 98.2841 163.094 98.4688 163.366 98.7245C163.639 98.9773 163.857 99.3125 164.018 99.7301C164.18 100.148 164.261 100.662 164.261 101.273V101.699H159.216V100.83H163.239C163.239 100.46 163.165 100.131 163.017 99.8409C162.872 99.5512 162.665 99.3225 162.395 99.1548C162.128 98.9872 161.812 98.9034 161.449 98.9034C161.048 98.9034 160.702 99.0029 160.409 99.2017C160.119 99.3977 159.896 99.6534 159.74 99.9688C159.584 100.284 159.506 100.622 159.506 100.983V101.562C159.506 102.057 159.591 102.476 159.761 102.82C159.935 103.161 160.175 103.421 160.482 103.6C160.788 103.776 161.145 103.864 161.551 103.864C161.815 103.864 162.054 103.827 162.267 103.753C162.483 103.676 162.669 103.562 162.825 103.412C162.982 103.258 163.102 103.068 163.188 102.841L164.159 103.114C164.057 103.443 163.885 103.733 163.643 103.983C163.402 104.23 163.104 104.423 162.749 104.562C162.394 104.699 161.994 104.767 161.551 104.767Z"
                fill="#EC1C1C" />
            <path
                d="M243.568 25.2298L242.5 24.9381L247.889 17.3629L248.942 17.6502L249.735 26.9139L248.666 26.6217L248.085 18.8473L248.02 18.8297L243.568 25.2298ZM244.861 22.0487L249.169 23.225L248.922 24.1298L244.614 22.953L244.861 22.0487Z"
                fill="#EC1C1C" />
            <path
                d="M89.6282 25.6942L87.643 17.1959L90.6145 16.5012C91.2062 16.3633 91.7191 16.3518 92.1508 16.4665C92.5825 16.5789 92.9327 16.7842 93.2009 17.0835C93.4686 17.3797 93.6512 17.7355 93.7474 18.1507C93.8331 18.515 93.8381 18.832 93.7642 19.1009C93.6917 19.3679 93.5671 19.5954 93.3893 19.7829C93.2147 19.9699 93.0123 20.125 92.7844 20.2483L92.8047 20.3312C93.0681 20.2875 93.3511 20.3169 93.6525 20.4213C93.9545 20.5265 94.2297 20.713 94.4787 20.9817C94.7287 21.2499 94.906 21.6085 95.0102 22.0567C95.1096 22.4825 95.1019 22.8883 94.9879 23.2735C94.874 23.6587 94.6315 24 94.2606 24.2973C93.8892 24.5937 93.3684 24.821 92.6991 24.9764L89.6282 25.6942ZM90.4438 24.5405L92.4855 24.0636C93.1575 23.9068 93.6048 23.6658 93.8268 23.3395C94.0498 23.0106 94.1181 22.6591 94.031 22.2854C93.9633 21.9974 93.8281 21.7487 93.6246 21.5397C93.4206 21.3277 93.1655 21.1803 92.8603 21.0971C92.5546 21.0107 92.216 21.011 91.8455 21.0977L89.7547 21.5864L90.4438 24.5405ZM89.5449 20.6897L91.4534 20.2445C91.7633 20.1712 92.0282 20.0456 92.249 19.8652C92.4721 19.6848 92.6321 19.4671 92.7262 19.2114C92.8244 18.9547 92.8378 18.6777 92.7682 18.3794C92.6811 18.0057 92.477 17.7195 92.1569 17.5201C91.8349 17.3172 91.3917 17.2827 90.8272 17.4144L88.8857 17.8676L89.5449 20.6897Z"
                fill="#EC1C1C" />
            <path
                d="M310.5 71.5L155.5 26.5L19 76.5L173.5 121.5L310.5 71.5ZM310.5 71.5V133M310.5 133L173.5 184L17.5 138.5L30.5 134M310.5 133L300 130.5M72 119L85.5 114.5M35 132L48.5 127.5M53.5 126L67 121.5M89.5 112.5L103 108M108 105.5L121.5 101M166 91.5L155.5 89L144 93M126 99L139.5 94.5M191.5 99L202 101.5M173 94L183.5 96.5M247 114.5L257.5 117M210.5 104.5L221 107M228.5 109L239 111.5M283.5 125.5L294 128M266 120.5L276.5 123M17.5 73.5V57M17.5 57L155.5 7M17.5 57V51.5M17.5 57L10.5 59M155.5 7L310.5 51M155.5 7L147.5 4.5M155.5 7V2M155.5 7L163 4.5M310.5 51V66.5M310.5 51V45.5M310.5 51L317.5 53M160 1L151.5 11.5M156 9.5V22.5M156 44V57M156 26.6452V39.6452M156 60V73M156 76.119V89.119M13.5 61L22 51.5M306.5 56L315.5 45.5"
                stroke="black" />
            <path d="M173.5 122V184L153 191L1 143V81L18.5 76.5L153 115.982L173.5 122Z" fill="#D9D9D9"
                fill-opacity="0.42" />
            <path
                d="M18.5 76.5L18 139M18.5 76.5L1 81M18.5 76.5L173.5 122M18 139L1 143M18 139L173.5 184M173.5 122V184M173.5 122L153 128M173.5 122V101.5V97.5M173.5 184L153 191M153 191L1 143M153 191V128M1 143V81M1 81L153 128M153 128V103.5"
                stroke="black" />
            
            <text id="A-text" style="font-weight: bold;" x="210" y="10" fill="#EC1C1C" transform="
            rotate(19 50 100)                  
            skewX(-40)
            scale(1 0.7)">10 м</text>
            <text id="B-text" style="font-weight: bold" x="40" y="140" fill="#EC1C1C" transform="
            rotate(-20 50 100)                 
            skewX(40)
            scale(1 0.7)">10 м</text>
            <text id="h-text" style="font-weight: bold; font-size: 14px" x="290" y="140" fill="#EC1C1C" height="10"
                transform="skewY(-6.5)">0.60 м</text>
            <text  id="e-text" style="font-weight: bold" x="115" y="280" fill="#EC1C1C" transform="skewY(-6.5)">0.10 м</text>    
            <line x1="140.366" y1="113.518" x2="183.366" y2="101.518" stroke="black" />
            <line x1="147.757" y1="107.571" x2="157.757" y2="113.571" stroke="black" />
            <line x1="168.757" y1="101.571" x2="178.757" y2="107.571" stroke="black" />
            <line x1="309.5" y1="71.5" x2="326.5" y2="71.5" stroke="black" />
            <line x1="309.5" y1="133.5" x2="326.5" y2="133.5" stroke="black" />
            <line x1="322" y1="67.9929" x2="323" y2="137.993" stroke="black" />
            <line x1="325.8" y1="68.4" x2="317.8" y2="74.4" stroke="black" />
            <line x1="326.8" y1="131.4" x2="318.8" y2="137.4" stroke="black" />
        </svg>