    <svg width="357" height="189" viewBox="0 0 357 189" fill="none" xmlns="http://www.w3.org/2000/svg">
            <path d="M48 68L186 18L341.5 62.5V124.5L203.5 174.5L48 130.5V68Z" fill="#54DED6" fill-opacity="0.25"/>
            <path d="M48 68L186 18L341.5 62.5M48 68V130.5L203.5 174.5M48 68L202.5 113M341.5 62.5V124.5L203.5 174.5M341.5 62.5L202.5 113M203.5 174.5L202.5 113" stroke="black"/>
            <line x1="186.5" y1="30" x2="186.5" y2="48" stroke="black"/>
            <line x1="186.142" y1="79.5207" x2="201.747" y2="84.1569" stroke="black"/>
            <line x1="172.817" y1="84.5345" x2="185.566" y2="79.5345" stroke="black"/>
            <line x1="154.817" y1="91.5345" x2="167.566" y2="86.5345" stroke="black"/>
            <line x1="138.817" y1="97.5345" x2="151.566" y2="92.5345" stroke="black"/>
            <line x1="121.726" y1="103.213" x2="134.703" y2="98.8395" stroke="black"/>
            <line x1="103.832" y1="110.529" x2="117.832" y2="105.529" stroke="black"/>
            <line x1="85.8381" y1="115.961" x2="98.7939" y2="111.527" stroke="black"/>
            <line x1="66.8469" y1="122.908" x2="80.4774" y2="118.524" stroke="black"/>
            <line x1="48.7093" y1="129.146" x2="61.7289" y2="124.903" stroke="black"/>
            <line x1="209.142" y1="86.5207" x2="224.747" y2="91.1569" stroke="black"/>
            <line x1="186.5" y1="62" x2="186.5" y2="80" stroke="black"/>
            <line x1="231.142" y1="92.5207" x2="246.747" y2="97.1569" stroke="black"/>
            <line x1="252.142" y1="98.5207" x2="267.747" y2="103.157" stroke="black"/>
            <line x1="278.142" y1="106.521" x2="293.747" y2="111.157" stroke="black"/>
            <line x1="302.142" y1="113.521" x2="317.747" y2="118.157" stroke="black"/>
            <line x1="325.142" y1="120.521" x2="340.747" y2="125.157" stroke="black"/>
            <path d="M48 68L202.611 113.386L341.5 63L356.5 68V129L203 188L183 182L31 134.5L30 74L48 68Z" fill="#D9D9D9" fill-opacity="0.44"/>
            <path d="M48 68L203 113.5M48 68V130M48 68L30 74M203 113.5V174.871M203 113.5L183 120.5M203 174.871L48 130M203 174.871L183 182M48 130L31 134.5M30 74L31 134.5M30 74L183 120.5M31 134.5L183 182M183 182V120.5M183 182L341.5 125.5L356.5 129M183 182L203 188M183 120.5L203 125.5M183 120.5L341.5 63L356.5 68M203 125.5L356.5 68M203 125.5V188M356.5 68V129M356.5 129L203 188" stroke="black"/>
            <path d="M8.5 131L48.3749 129.707" stroke="black"/>
            <path d="M9 68.4736L48.8749 67.1806" stroke="black"/>
            <path d="M17 63L17 136" stroke="black"/>
            <path d="M0.779344 94.3906V98H0V90H0.779344V92.9375H0.845188C0.964493 92.6276 1.14268 92.3815 1.38052 92.1993C1.6199 92.0144 1.93908 91.9219 2.33806 91.9219C2.68358 91.9219 2.98573 92.0039 3.24526 92.168C3.50556 92.3294 3.70698 92.5781 3.84953 92.9141C3.99517 93.2474 4.06723 93.6719 4.06723 94.1875V98H3.28864V94.25C3.28864 93.7735 3.18406 93.405 2.97488 93.1445C2.76804 92.8815 2.48062 92.75 2.11341 92.75C1.85775 92.75 1.62919 92.8138 1.42622 92.9414C1.22634 93.069 1.06755 93.2553 0.951341 93.5C0.836684 93.7448 0.779344 94.0417 0.779344 94.3906Z" fill="#EC1C1C"/>
            <line x1="12.6518" y1="134.762" x2="21.0213" y2="126.641" stroke="black"/>
            <line x1="12.2572" y1="65.5713" x2="22.2572" y2="71.5713" stroke="black"/>
            <line x1="293.5" y1="80" x2="293.5" y2="59" stroke="black"/>
            <path d="M313.5 84V65" stroke="black"/>
            <line x1="289.136" y1="61.5189" x2="318.576" y2="69.841" stroke="black"/>
            <path d="M303.051 61.7671C302.42 61.7671 301.876 61.6279 301.419 61.3495C300.964 61.0682 300.614 60.6762 300.366 60.1733C300.122 59.6676 300 59.0796 300 58.4091C300 57.7387 300.122 57.1477 300.366 56.6364C300.614 56.1222 300.957 55.7216 301.398 55.4347C301.841 55.1449 302.358 55 302.949 55C303.29 55 303.626 55.0568 303.959 55.1705C304.291 55.2841 304.594 55.4688 304.866 55.7245C305.139 55.9773 305.357 56.3125 305.518 56.7301C305.68 57.1477 305.761 57.6619 305.761 58.2727V58.6989H300.716V57.8296H304.739C304.739 57.4602 304.665 57.1307 304.517 56.8409C304.372 56.5512 304.165 56.3225 303.895 56.1548C303.628 55.9872 303.312 55.9034 302.949 55.9034C302.548 55.9034 302.202 56.0029 301.909 56.2017C301.619 56.3977 301.396 56.6534 301.24 56.9688C301.084 57.2841 301.006 57.6222 301.006 57.983V58.5625C301.006 59.0568 301.091 59.4759 301.261 59.8196C301.435 60.1605 301.675 60.4205 301.982 60.5995C302.288 60.7756 302.645 60.8637 303.051 60.8637C303.315 60.8637 303.554 60.8267 303.767 60.7529C303.983 60.6762 304.169 60.5625 304.325 60.4119C304.482 60.2585 304.602 60.0682 304.688 59.8409L305.659 60.1137C305.557 60.4432 305.385 60.733 305.143 60.983C304.902 61.2301 304.604 61.4233 304.249 61.5625C303.894 61.6989 303.494 61.7671 303.051 61.7671Z" fill="#EC1C1C"/>
            <line x1="290.757" y1="59.5897" x2="295.944" y2="64.6978" stroke="black"/>
            <line x1="310.774" y1="69.5944" x2="316.774" y2="66.554" stroke="black"/>
            <line x1="186.5" x2="186.5" y2="18" stroke="black"/>
            <line x1="179.139" y1="4.51978" x2="348.139" y2="53.5198" stroke="black"/>
            <line x1="341.5" y1="48" x2="341.5" y2="66" stroke="black"/>
            <path d="M276.068 25.2298L275 24.9381L280.389 17.3629L281.442 17.6502L282.235 26.9139L281.166 26.6217L280.585 18.8473L280.52 18.8297L276.068 25.2298ZM277.361 22.0487L281.669 23.225L281.422 24.1298L277.114 22.953L277.361 22.0487Z" fill="#EC1C1C"/>
            <line x1="335.79" y1="54.546" x2="348.79" y2="48.546" stroke="black"/>
            <line x1="43.8372" y1="56.5272" x2="194.837" y2="4.52725" stroke="black"/>
            <line x1="48.5" y1="48" x2="48.5" y2="66" stroke="black"/>
            <path d="M103.882 25.8224L101.897 17.324L104.869 16.6293C105.46 16.4915 105.973 16.4799 106.405 16.5946C106.837 16.7071 107.187 16.9123 107.455 17.2116C107.723 17.5078 107.905 17.8637 108.001 18.2788C108.087 18.6431 108.092 18.9602 108.018 19.229C107.946 19.4961 107.821 19.7236 107.643 19.911C107.469 20.098 107.266 20.2532 107.038 20.3764L107.059 20.4594C107.322 20.4157 107.605 20.4451 107.907 20.5494C108.208 20.6546 108.484 20.8412 108.733 21.1099C108.983 21.3781 109.16 21.7367 109.264 22.1848C109.364 22.6107 109.356 23.0164 109.242 23.4017C109.128 23.7869 108.886 24.1282 108.515 24.4255C108.143 24.7219 107.622 24.9491 106.953 25.1045L103.882 25.8224ZM104.698 24.6687L106.74 24.1918C107.412 24.035 107.859 23.794 108.081 23.4677C108.304 23.1388 108.372 22.7872 108.285 22.4136C108.217 22.1255 108.082 21.8768 107.879 21.6679C107.675 21.4559 107.42 21.3085 107.114 21.2252C106.809 21.1389 106.47 21.1392 106.1 21.2259L104.009 21.7146L104.698 24.6687ZM103.799 20.8179L105.707 20.3727C106.017 20.2993 106.282 20.1738 106.503 19.9934C106.726 19.8129 106.886 19.5953 106.98 19.3396C107.078 19.0829 107.092 18.8059 107.022 18.5076C106.935 18.1339 106.731 17.8476 106.411 17.6483C106.089 17.4454 105.646 17.4109 105.081 17.5426L103.14 17.9958L103.799 20.8179Z" fill="#EC1C1C"/>
            <line x1="43.2572" y1="51.5713" x2="53.2572" y2="57.5713" stroke="black"/>
        </svg> 